<svg width="233" height="224" viewBox="0 0 233 224" fill="none" xmlns="http://www.w3.org/2000/svg">
<path d="M120.323 159.098C120.323 159.098 137.418 166.643 154.372 155.378C154.372 155.378 159.194 141.079 169.818 139.224C169.818 139.224 179.051 139.327 178.834 142.539C178.834 142.539 179.698 147.147 175.883 147.441C172.069 147.736 167.935 147.344 167.444 151.561L168.899 152.516C168.899 152.516 178.068 155.167 182.427 152.077C186.785 148.988 193.042 143.827 196.218 150.167C196.218 150.167 197.515 154.076 193.908 155.953C193.908 155.953 196.604 161.993 191.529 164.173C191.529 164.173 196.404 168.523 189.88 170.807L184.134 171.529C184.134 171.529 186.746 176.454 182.427 176.498C178.107 176.543 167.1 175.124 163.835 173.378C163.835 173.378 145.302 183.486 138.351 185.093C131.4 186.7 115.859 190.942 106.987 185.093C106.987 185.093 92.0766 174.652 95.8687 162.518C99.6608 150.384 120.323 159.095 120.323 159.095V159.098Z" fill="white"/>
<path d="M168.213 152.516C168.213 152.516 179.437 155.992 185.885 149.746C192.193 143.641 201.234 151.048 193.908 155.95C186.582 160.853 177.424 159.168 177.424 159.168" stroke="#231F20" stroke-miterlimit="10"/>
<path d="M193.178 156.417C193.178 156.417 196.698 159.728 192.687 163.62C188.678 167.51 177.421 164.048 177.421 164.048" stroke="#231F20" stroke-miterlimit="10"/>
<path d="M191.529 164.17C191.529 164.17 194.236 166.049 192.778 168.784C191.321 171.518 181.66 173.797 175.189 168.145" stroke="#231F20" stroke-miterlimit="10"/>
<path d="M184.131 171.529C184.131 171.529 187.671 176.204 181.386 176.621C175.101 177.04 163.835 173.378 163.835 173.378C163.835 173.378 149.586 181.951 139.42 184.802C105.69 194.26 93.3119 180.663 93.7256 164.17C94.1364 147.741 107.395 147.439 107.395 147.439C124.346 173.47 154.194 155.95 154.194 155.95C154.194 155.95 158.644 139.199 172.25 138.999C172.25 138.999 177.924 138.999 178.837 142.536C178.837 142.536 180.386 148.277 173.735 147.73C168.718 147.316 167.128 150.598 167.447 151.558C167.766 152.519 173.188 155.387 171.367 160.489" stroke="#231F20" stroke-miterlimit="10"/>
<path d="M83.4569 131.263L122.069 155.378L105.963 189.688L77.902 130.741L83.4569 131.263Z" fill="black"/>
<path d="M18.0418 135.976C20.2072 133.139 30.5841 123.301 36.908 121.932L51.7627 124.156C67.1644 126.76 81.0836 129.841 84.9507 130.715C85.628 130.868 86.2082 131.296 86.5525 131.901C87.9849 134.408 99.6277 165.547 104.672 181.268C111.204 201.661 119.202 223.783 119.202 223.783H0.00292969C0.00292969 223.783 11.4181 144.671 18.0418 135.982V135.976Z" fill="#E5E6E8"/>
<path d="M60.7876 107.824C86.4357 115.861 95.4941 104.721 95.4941 104.721C101.743 95.6566 98.3506 72.9012 87.5212 61.9524C83.5348 57.9215 65.6485 43.5082 65.6485 43.5082C65.6485 43.5082 72.8691 60.4367 44.4116 73.9422C43.4094 74.4169 43.1179 75.7078 43.8314 76.5545C46.6907 79.9496 52.5511 87.5422 50.258 90.2489C50.258 90.2489 49.9943 91.2066 47.407 88.6915C41.2691 82.7257 31.3807 83.3226 34.4705 93.4441C38.2376 105.781 50.866 99.2156 50.866 99.2156C50.9576 99.8152 51.0298 100.418 51.0797 101.023L49.8943 123.878" stroke="black" stroke-miterlimit="10"/>
<path d="M77.5968 110.722L78.2159 129.339" stroke="black" stroke-miterlimit="10"/>
<path d="M57.3759 30.6522C30.7201 34.0556 32.2164 56.7833 32.2164 56.7833C32.2164 56.7833 12.5424 66.9576 23.0887 88.8191C28.1578 99.3266 45.9663 105.803 45.9663 105.803C45.9663 105.803 29.8679 102.591 31.4613 116.324C31.8444 119.631 31.2253 119.059 30.3786 120.969C29.8956 122.057 30.684 126.632 31.8361 126.335C36.9968 125.002 46.2272 119.042 50.7911 107.116L50.866 99.2155C50.866 99.2155 41.7883 104.346 36.1306 97.0446C36.1306 97.0446 28.3466 80.1772 44.0758 86.2596L49.2392 90.1822C50.4496 90.9623 50.9354 88.5582 50.5495 87.1729C50.0193 85.263 48.2676 82.1954 45.3444 78.4172C45.3444 78.4172 42.1436 75.0665 44.4117 73.945C46.6797 72.8207 71.2979 61.3 65.6486 43.5109L79.5289 54.6346C79.5289 54.6346 84.0345 27.2515 57.3787 30.6549L57.3759 30.6522Z" fill="black"/>
<path d="M64.5214 178.955C64.5214 178.955 25.7897 192.441 6.42383 167.654C6.42383 167.654 19.5019 162.277 43.2873 166.652C43.2873 166.652 60.7848 172.301 64.5214 178.955Z" fill="black"/>
<path d="M124.92 188.677C124.92 188.677 129.498 171.618 143.886 171.763C143.886 171.763 152.923 173.584 146.293 179.602C146.293 179.602 137.232 180.538 138.276 183.422C139.32 186.306 147.498 187.514 152.031 184.044C152.031 184.044 154.158 183.222 155.69 181.634C158.178 179.053 160.979 177.778 165.073 180.221C165.073 180.221 169.412 186.187 164.632 188.677C164.632 188.677 166.825 192.95 162.367 197.1C162.367 197.1 160.354 203.912 153.908 203.99C153.908 203.99 157.911 206.5 154.902 208.248C151.893 210 141.777 210.158 136.327 210.908C130.878 211.657 121.039 214.586 121.039 214.586C121.039 214.586 91.0467 221.446 74.7179 220.355C62.4699 219.539 51.4017 220.416 39.8255 212.313C35.9668 209.612 31.4695 206.974 27.633 201.528C27.633 201.528 17.864 184.552 16.0734 170.847L15.5321 158.493C15.5321 158.493 33.4988 146.459 56.2626 169.428C56.2626 169.428 60.3601 181.254 65.7151 185.698C66.5313 186.376 67.564 186.72 68.4801 187.445C79.7148 196.336 124.915 188.672 124.915 188.672L124.92 188.677Z" fill="white"/>
<path d="M140.983 193.982C148.958 196.081 161.662 191.323 164.749 188.88C171.383 183.628 162.544 176.004 157.661 179.941C154.699 182.331 149.005 188.797 139.739 185.443C136.211 184.166 140.172 179.999 144.003 180.13C149.278 180.313 151.174 171.874 143.092 171.929C129.776 172.021 125.037 188.88 125.037 188.88C125.037 188.88 79.9257 196.545 66.2564 186.204C52.9118 176.11 55.488 147.205 32.2162 141.168C15.657 136.873 11.3124 161.572 19.6989 185.052C27.8883 207.988 48.9865 235.97 128.618 212.46C138.029 209.681 152.262 210.222 155.021 208.454C157.781 206.688 154.027 204.195 154.027 204.195" stroke="#231F20" stroke-miterlimit="10"/>
<path d="M164.748 188.883C164.748 188.883 166.65 193.299 162.544 196.547C158.436 199.795 143.09 199.801 143.09 199.801" stroke="#231F20" stroke-miterlimit="10"/>
<path d="M162.544 196.547C162.544 196.547 162.672 202.177 156.134 203.701C149.597 205.228 144 203.704 144 203.704" stroke="#231F20" stroke-miterlimit="10"/>
<path d="M64.219 178.403C64.219 178.403 41.097 155.897 6.42114 167.654C6.42114 167.654 15.0214 125.233 34.0569 122.171C56.8734 118.501 65.0351 157.396 64.219 178.403Z" fill="#E5E6E8"/>
<path d="M54.4082 133.719C62.8808 146.936 64.5214 178.589 64.5214 178.589C64.5214 178.589 45.3832 156.716 6.42383 167.654" stroke="black" stroke-miterlimit="10"/>
<path d="M65.6874 78.2728C66.7346 78.2728 67.5835 77.4239 67.5835 76.3768C67.5835 75.3296 66.7346 74.4807 65.6874 74.4807C64.6402 74.4807 63.7914 75.3296 63.7914 76.3768C63.7914 77.4239 64.6402 78.2728 65.6874 78.2728Z" fill="#231F20"/>
<path d="M79.7511 66.0332C80.7982 66.0332 81.6471 65.1843 81.6471 64.1371C81.6471 63.09 80.7982 62.2411 79.7511 62.2411C78.7039 62.2411 77.855 63.09 77.855 64.1371C77.855 65.1843 78.7039 66.0332 79.7511 66.0332Z" fill="#231F20"/>
<path d="M68.1219 94.3768C68.1219 94.3768 68.6911 102.419 76.8138 97.4083" stroke="#231F20" stroke-miterlimit="10"/>
<path d="M61.3706 70.9189C61.3706 70.9189 54.3221 71.4797 57.187 79.2222" stroke="#231F20" stroke-miterlimit="10"/>
<path d="M82.5797 82.5453L85.353 74.6834C79.5844 72.7707 74.3403 67.8626 71.878 65.2864C70.6732 64.0261 70.2956 62.1745 70.9369 60.5532C71.7031 58.6211 73.5353 56.7417 77.9215 58.1242" stroke="#231F20" stroke-miterlimit="10"/>
<path d="M37.9101 87.4283C37.9101 87.4283 35.9057 96.5005 45.5664 94.3796" stroke="#231F20" stroke-miterlimit="10"/>
<path d="M166.003 45.1092C169.778 42.7163 172.673 40.6314 174.689 38.8575C176.702 37.0808 177.826 35.5124 178.054 34.1521C178.203 33.2637 178.048 32.5364 177.584 31.9729C177.121 31.4093 176.432 31.0512 175.516 30.8958C173.792 30.6043 171.91 30.8458 169.864 31.6148L168.867 25.0577C170.528 24.5386 172.132 24.2082 173.687 24.0694C175.239 23.9306 176.835 24 178.475 24.2776C180.421 24.6052 182.059 25.2742 183.389 26.2847C184.719 27.2952 185.663 28.525 186.218 29.9769C186.773 31.4288 186.909 33.0028 186.623 34.6962C186.196 37.2252 184.952 39.4377 182.889 41.3338C180.827 43.2298 177.92 44.876 174.167 46.2724L184.214 47.9658L183.186 54.051L165.011 50.9862L166.003 45.1092Z" fill="#FFA500"/>
<path d="M193.266 44.604L189.041 33.5608L197.836 35.0432L199.34 40.3566L202.588 35.8455L211.133 37.2863L203.604 46.3501L208.029 58.2428L199.485 56.802L197.55 50.989L193.899 55.861L185.105 54.3785L193.269 44.6095L193.266 44.604Z" fill="#FFA500"/>
<path d="M218.146 105.356L210.256 102.463L213.343 94.0375L205.112 91.0199L207.877 83.4718L216.108 86.4893L219.195 78.064L227.084 80.9566L223.998 89.382L232.229 92.3996L229.464 99.9477L221.233 96.9301L218.146 105.356Z" fill="#FFA500"/>
<path d="M160.514 115.263L158.971 108.865C160.112 108.642 161.142 108.368 162.058 108.04C163.696 107.452 164.767 106.513 165.275 105.22C165.783 103.926 165.561 101.916 164.614 99.1844C164.167 102.477 162.346 104.695 159.157 105.841C156.464 106.808 154.021 106.61 151.828 105.253C149.632 103.895 147.936 101.536 146.731 98.1795L143 87.772L151.742 84.6378L155.936 96.3334C156.275 97.2773 156.819 97.9657 157.572 98.4016C158.324 98.8374 159.157 98.8902 160.073 98.5626C161.017 98.2239 161.641 97.5465 161.949 96.5277C162.258 95.5089 162.177 94.3485 161.711 93.0437L157.905 82.4281L166.688 79.2772L172.271 94.8454C174.003 99.673 174.239 103.74 172.979 107.041C171.718 110.341 169.078 112.715 165.056 114.159C163.529 114.705 162.016 115.075 160.52 115.269L160.514 115.263Z" fill="#FFA500"/>
<path d="M10.9153 44.3287L14.4374 58.434L92.0362 39.0576L88.5141 24.9524L10.9153 44.3287Z" fill="#80C0FF"/>
<path d="M13.4037 30.6671L16.4718 42.9543L77.9265 27.6092L74.8584 15.322L13.4037 30.6671Z" fill="#E5E6E8"/>
<path d="M36.5882 0.514016L35.6981 13.1471L98.8831 17.5987L99.7731 4.96558L36.5882 0.514016Z" fill="#FDC506"/>
<path d="M79.7787 27.1321L83.3904 41.2123" stroke="white" stroke-miterlimit="10"/>
<path d="M71.8197 29.1169L75.4314 43.1999" stroke="white" stroke-miterlimit="10"/>
<path d="M66.3508 17.4436L69.4017 29.736" stroke="black" stroke-miterlimit="10"/>
<path d="M93.6951 4.53491L92.8762 17.1744" stroke="black" stroke-miterlimit="10"/>
<path d="M85.7973 3.97974L84.9783 16.6192" stroke="black" stroke-miterlimit="10"/>
<path d="M58.6639 19.3647L61.7148 31.6572" stroke="black" stroke-miterlimit="10"/>
<path d="M20.9843 28.7755L24.0324 41.0679" stroke="black" stroke-miterlimit="10"/>
</svg>
